<svg width="57" height="52" viewBox="0 0 57 52" fill="none" xmlns="http://www.w3.org/2000/svg">
<path d="M1.22665 0.734597C0.870394 1.06265 0.653788 1.49756 0.616214 1.96026C0.57864 2.42296 0.722594 2.88272 1.0219 3.25593L1.22665 3.47293L12.5411 13.8967C7.02418 17.4581 3.08589 22.7318 1.44822 28.7508C1.32195 29.2463 1.41243 29.7677 1.70011 30.2023C1.98778 30.6368 2.44955 30.9496 2.98562 31.0732C3.52168 31.1967 4.08899 31.121 4.56493 30.8624C5.04088 30.6038 5.38724 30.1831 5.52915 29.6912C6.98455 24.3489 10.569 19.7065 15.5702 16.6867L20.6468 21.3625C18.619 23.3142 17.5015 25.9197 17.5339 28.621C17.5662 31.3222 18.7458 33.9044 20.8199 35.8144C22.894 37.7244 25.6977 38.8104 28.6305 38.8397C31.5633 38.869 34.3919 37.8394 36.5106 35.9713L53.1119 51.2646C53.4873 51.6113 53.9912 51.8142 54.5224 51.8326C55.0536 51.851 55.5726 51.6835 55.9752 51.3638C56.3777 51.044 56.6339 50.5958 56.6923 50.1092C56.7506 49.6225 56.6068 49.1336 56.2897 48.7407L56.085 48.5237L38.9395 32.7292L38.9423 32.724L19.4492 14.7802L19.4548 14.775L16.277 11.8558L4.1997 0.734597C3.80528 0.371767 3.27062 0.167969 2.71317 0.167969C2.15572 0.167969 1.62107 0.371767 1.22665 0.734597ZM28.6572 9.20793C25.8525 9.20793 23.1318 9.59026 20.5543 10.3058L24.0238 13.4988C30.0247 12.4044 36.2528 13.4758 41.4203 16.4915C46.5878 19.5071 50.2995 24.2364 51.7881 29.7015C51.9334 30.1896 52.2803 30.6059 52.7546 30.8615C53.2288 31.117 53.7928 31.1915 54.326 31.069C54.8591 30.9465 55.319 30.6367 55.6074 30.2059C55.8957 29.7751 55.9897 29.2575 55.869 28.7638C54.3481 23.1772 50.8444 18.2187 45.9143 14.6757C40.9843 11.1327 34.9104 9.20828 28.6572 9.20793ZM29.2041 18.2754L39.8651 28.0921C39.7271 25.5292 38.5596 23.105 36.5893 21.2908C34.619 19.4765 31.9868 18.4018 29.2041 18.2754Z" fill="black"/>
</svg>
