<svg width="54" height="32" viewBox="0 0 54 32" fill="none" xmlns="http://www.w3.org/2000/svg">
<path d="M26.9984 9.76326C29.9158 9.76326 32.7137 10.9222 34.7766 12.9851C36.8395 15.048 37.9984 17.8459 37.9984 20.7633C37.9984 23.6806 36.8395 26.4785 34.7766 28.5414C32.7137 30.6043 29.9158 31.7633 26.9984 31.7633C24.0811 31.7633 21.2832 30.6043 19.2203 28.5414C17.1574 26.4785 15.9984 23.6806 15.9984 20.7633C15.9984 17.8459 17.1574 15.048 19.2203 12.9851C21.2832 10.9222 24.0811 9.76326 26.9984 9.76326ZM26.9984 0.124512C39.6842 0.124512 50.6374 8.78701 53.6762 20.9255C53.8093 21.4561 53.7262 22.0179 53.4451 22.4872C53.164 22.9565 52.708 23.2949 52.1774 23.428C51.6468 23.5611 51.0851 23.478 50.6158 23.1969C50.1465 22.9159 49.808 22.4599 49.6749 21.9293C48.4017 16.8788 45.4789 12.3979 41.37 9.19712C37.2611 5.99632 32.2013 4.2588 26.9928 4.26006C21.7843 4.26133 16.7253 6.0013 12.6179 9.2041C8.51059 12.4069 5.58997 16.8892 4.31919 21.9403C4.25364 22.2032 4.13695 22.4506 3.97579 22.6684C3.81462 22.8862 3.61213 23.0701 3.37988 23.2097C3.14763 23.3493 2.89017 23.4417 2.62219 23.4818C2.35421 23.5218 2.08097 23.5087 1.81806 23.4431C1.55516 23.3776 1.30773 23.2609 1.08992 23.0997C0.872113 22.9386 0.68818 22.7361 0.548625 22.5038C0.40907 22.2716 0.316627 22.0141 0.276574 21.7461C0.236521 21.4782 0.249641 21.2049 0.315187 20.942C1.80655 14.9946 5.24223 9.71588 10.0766 5.94424C14.911 2.17261 20.8669 0.124269 26.9984 0.124512Z" fill="black"/>
</svg>
