<svg width="33" height="33" viewBox="0 0 33 33" fill="none" xmlns="http://www.w3.org/2000/svg">
<path d="M20.625 4.125V9.625C20.625 10.3844 21.2406 11 22 11H27.5" stroke="black" stroke-width="2" stroke-linecap="round" stroke-linejoin="round"/>
<path fill-rule="evenodd" clip-rule="evenodd" d="M24.75 23.375H15.125C13.6062 23.375 12.375 22.1438 12.375 20.625V6.875C12.375 5.35622 13.6062 4.125 15.125 4.125H20.625L27.5 11V20.625C27.5 22.1438 26.2688 23.375 24.75 23.375Z" stroke="black" stroke-width="2" stroke-linecap="round" stroke-linejoin="round"/>
<path d="M22 23.375V26.125C22 27.6438 20.7688 28.875 19.25 28.875H9.625C8.10622 28.875 6.875 27.6438 6.875 26.125V12.375C6.875 10.8562 8.10622 9.625 9.625 9.625H12.375" stroke="black" stroke-width="2" stroke-linecap="round" stroke-linejoin="round"/>
</svg>
