<svg width="33" height="33" viewBox="0 0 33 33" fill="none" xmlns="http://www.w3.org/2000/svg">
<path d="M16.5 11V16.5L19.25 19.25" stroke="black" stroke-width="2" stroke-linecap="round" stroke-linejoin="round"/>
<path d="M3.199 15.0235C3.14303 15.573 3.54307 16.0637 4.09251 16.1197C4.64195 16.1757 5.13273 15.7756 5.1887 15.2262L3.199 15.0235ZM5.82064 20.2818C5.63115 19.763 5.057 19.4961 4.53824 19.6856C4.01948 19.8751 3.75256 20.4492 3.94205 20.968L5.82064 20.2818ZM3.19385 27.4999C3.19385 28.0521 3.64156 28.4999 4.19385 28.4999C4.74613 28.4999 5.19385 28.0521 5.19385 27.4999H3.19385ZM4.19385 20.6249V19.6249C3.64156 19.6249 3.19385 20.0726 3.19385 20.6249H4.19385ZM11.0688 21.6249C11.6211 21.6249 12.0688 21.1771 12.0688 20.6249C12.0688 20.0726 11.6211 19.6249 11.0688 19.6249V21.6249ZM5.1887 15.2262C5.77506 9.46975 10.5894 5.07075 16.3752 5.00466L16.3524 3.00479C9.54923 3.0825 3.88846 8.25496 3.199 15.0235L5.1887 15.2262ZM16.3752 5.00466C22.1611 4.93858 27.0746 9.22647 27.7923 14.968L29.7769 14.72C28.933 7.9689 23.1555 2.92709 16.3524 3.00479L16.3752 5.00466ZM27.7923 14.968C28.51 20.7096 24.8031 26.075 19.179 27.4352L19.6492 29.3791C26.2621 27.7798 30.6207 21.471 29.7769 14.72L27.7923 14.968ZM19.179 27.4352C13.5549 28.7953 7.80594 25.7167 5.82064 20.2818L3.94205 20.968C6.27641 27.3586 13.0362 30.9784 19.6492 29.3791L19.179 27.4352ZM5.19385 27.4999V20.6249H3.19385V27.4999H5.19385ZM4.19385 21.6249H11.0688V19.6249H4.19385V21.6249Z" fill="black"/>
</svg>
