<svg width="522" height="510" viewBox="0 0 522 510" fill="none" xmlns="http://www.w3.org/2000/svg">
<rect width="301.37" height="301.37" rx="25.8119" transform="matrix(0.866044 0.499967 -0.866044 0.499967 261 207.785)" fill="url(#paint0_linear_121_3791)" fill-opacity="0.1"/>
<rect width="301.37" height="301.37" rx="25.8119" transform="matrix(0.866044 0.499967 -0.866044 0.499967 261 167.777)" fill="url(#paint1_linear_121_3791)" fill-opacity="0.2"/>
<rect width="301.37" height="301.37" rx="25.8119" transform="matrix(0.866044 0.499967 -0.866044 0.499967 261 122.606)" fill="url(#paint2_linear_121_3791)" fill-opacity="0.4"/>
<rect width="301.37" height="301.37" rx="25.8119" transform="matrix(0.866044 0.499967 -0.866044 0.499967 261 85.1792)" fill="url(#paint3_linear_121_3791)" fill-opacity="0.6"/>
<rect width="301.37" height="301.37" rx="25.8119" transform="matrix(0.866044 0.499967 -0.866044 0.499967 261 45.1704)" fill="url(#paint4_linear_121_3791)" fill-opacity="0.8"/>
<rect width="301.37" height="301.37" rx="25.8119" transform="matrix(0.866044 0.499967 -0.866044 0.499967 261 0)" fill="url(#paint5_linear_121_3791)"/>
<defs>
<linearGradient id="paint0_linear_121_3791" x1="150.685" y1="0" x2="150.685" y2="301.37" gradientUnits="userSpaceOnUse">
<stop stop-color="#3B5BDB"/>
<stop offset="1" stop-color="#91A7FF"/>
</linearGradient>
<linearGradient id="paint1_linear_121_3791" x1="150.685" y1="0" x2="150.685" y2="301.37" gradientUnits="userSpaceOnUse">
<stop stop-color="#3B5BDB"/>
<stop offset="1" stop-color="#91A7FF"/>
</linearGradient>
<linearGradient id="paint2_linear_121_3791" x1="150.685" y1="0" x2="150.685" y2="301.37" gradientUnits="userSpaceOnUse">
<stop stop-color="#3B5BDB"/>
<stop offset="1" stop-color="#91A7FF"/>
</linearGradient>
<linearGradient id="paint3_linear_121_3791" x1="150.685" y1="0" x2="150.685" y2="301.37" gradientUnits="userSpaceOnUse">
<stop stop-color="#3B5BDB"/>
<stop offset="1" stop-color="#91A7FF"/>
</linearGradient>
<linearGradient id="paint4_linear_121_3791" x1="150.685" y1="0" x2="150.685" y2="301.37" gradientUnits="userSpaceOnUse">
<stop stop-color="#3B5BDB"/>
<stop offset="1" stop-color="#91A7FF"/>
</linearGradient>
<linearGradient id="paint5_linear_121_3791" x1="150.685" y1="0" x2="150.685" y2="301.37" gradientUnits="userSpaceOnUse">
<stop stop-color="#3B5BDB"/>
<stop offset="1" stop-color="#91A7FF"/>
</linearGradient>
</defs>
</svg>
