<svg width="723" height="938" viewBox="0 0 723 938" fill="none" xmlns="http://www.w3.org/2000/svg">
<rect width="140.286" height="140.286" rx="12.0153" transform="matrix(0.866044 0.499967 -0.866044 0.499967 694.494 50.7231)" fill="url(#paint0_linear_193_3750)" fill-opacity="0.1"/>
<rect width="140.286" height="140.286" rx="12.0153" transform="matrix(0.866044 0.499967 -0.866044 0.499967 694.494 32.0996)" fill="url(#paint1_linear_193_3750)" fill-opacity="0.2"/>
<rect width="140.286" height="140.286" rx="12.0153" transform="matrix(0.866044 0.499967 -0.866044 0.499967 694.494 11.0728)" fill="url(#paint2_linear_193_3750)" fill-opacity="0.4"/>
<rect width="140.286" height="140.286" rx="12.0153" transform="matrix(0.866044 0.499967 -0.866044 0.499967 694.494 -6.34961)" fill="url(#paint3_linear_193_3750)" fill-opacity="0.6"/>
<rect width="140.286" height="140.286" rx="12.0153" transform="matrix(0.866044 0.499967 -0.866044 0.499967 694.494 -24.9731)" fill="url(#paint4_linear_193_3750)" fill-opacity="0.8"/>
<rect width="140.286" height="140.286" rx="12.0153" transform="matrix(0.866044 0.499967 -0.866044 0.499967 694.494 -46)" fill="url(#paint5_linear_193_3750)"/>
<rect width="174.356" height="174.356" rx="14.9333" transform="matrix(0.866044 0.499967 -0.866044 0.499967 665 645.213)" fill="url(#paint6_linear_193_3750)" fill-opacity="0.1"/>
<rect width="174.356" height="174.356" rx="14.9333" transform="matrix(0.866044 0.499967 -0.866044 0.499967 665 622.066)" fill="url(#paint7_linear_193_3750)" fill-opacity="0.2"/>
<rect width="174.356" height="174.356" rx="14.9333" transform="matrix(0.866044 0.499967 -0.866044 0.499967 665 595.933)" fill="url(#paint8_linear_193_3750)" fill-opacity="0.4"/>
<rect width="174.356" height="174.356" rx="14.9333" transform="matrix(0.866044 0.499967 -0.866044 0.499967 665 574.28)" fill="url(#paint9_linear_193_3750)" fill-opacity="0.6"/>
<rect width="174.356" height="174.356" rx="14.9333" transform="matrix(0.866044 0.499967 -0.866044 0.499967 665 551.133)" fill="url(#paint10_linear_193_3750)" fill-opacity="0.8"/>
<rect width="174.356" height="174.356" rx="14.9333" transform="matrix(0.866044 0.499967 -0.866044 0.499967 665 525)" fill="url(#paint11_linear_193_3750)"/>
<rect width="132.971" height="132.971" rx="11.3888" transform="matrix(0.866044 0.499967 -0.866044 0.499967 0.15918 636.679)" fill="url(#paint12_linear_193_3750)" fill-opacity="0.1"/>
<rect width="132.971" height="132.971" rx="11.3888" transform="matrix(0.866044 0.499967 -0.866044 0.499967 0.15918 619.027)" fill="url(#paint13_linear_193_3750)" fill-opacity="0.2"/>
<rect width="132.971" height="132.971" rx="11.3888" transform="matrix(0.866044 0.499967 -0.866044 0.499967 0.15918 599.097)" fill="url(#paint14_linear_193_3750)" fill-opacity="0.4"/>
<rect width="132.971" height="132.971" rx="11.3888" transform="matrix(0.866044 0.499967 -0.866044 0.499967 0.15918 582.583)" fill="url(#paint15_linear_193_3750)" fill-opacity="0.6"/>
<rect width="132.971" height="132.971" rx="11.3888" transform="matrix(0.866044 0.499967 -0.866044 0.499967 0.15918 564.931)" fill="url(#paint16_linear_193_3750)" fill-opacity="0.8"/>
<rect width="132.971" height="132.971" rx="11.3888" transform="matrix(0.866044 0.499967 -0.866044 0.499967 0.15918 545)" fill="url(#paint17_linear_193_3750)"/>
<rect width="115.716" height="115.716" rx="9.91084" transform="matrix(0.866044 0.499967 -0.866044 0.499967 315.215 831.782)" fill="url(#paint18_linear_193_3750)" fill-opacity="0.1"/>
<rect width="115.716" height="115.716" rx="9.91084" transform="matrix(0.866044 0.499967 -0.866044 0.499967 315.215 816.421)" fill="url(#paint19_linear_193_3750)" fill-opacity="0.2"/>
<rect width="115.716" height="115.716" rx="9.91084" transform="matrix(0.866044 0.499967 -0.866044 0.499967 315.215 799.077)" fill="url(#paint20_linear_193_3750)" fill-opacity="0.4"/>
<rect width="115.716" height="115.716" rx="9.91084" transform="matrix(0.866044 0.499967 -0.866044 0.499967 315.215 784.706)" fill="url(#paint21_linear_193_3750)" fill-opacity="0.6"/>
<rect width="115.716" height="115.716" rx="9.91084" transform="matrix(0.866044 0.499967 -0.866044 0.499967 315.215 769.344)" fill="url(#paint22_linear_193_3750)" fill-opacity="0.8"/>
<rect width="115.716" height="115.716" rx="9.91084" transform="matrix(0.866044 0.499967 -0.866044 0.499967 315.215 752)" fill="url(#paint23_linear_193_3750)"/>
<rect width="301.37" height="301.37" rx="25.8119" transform="matrix(0.866044 0.499967 -0.866044 0.499967 312 306.785)" fill="url(#paint24_linear_193_3750)" fill-opacity="0.1"/>
<rect width="301.37" height="301.37" rx="25.8119" transform="matrix(0.866044 0.499967 -0.866044 0.499967 312 266.777)" fill="url(#paint25_linear_193_3750)" fill-opacity="0.2"/>
<rect width="301.37" height="301.37" rx="25.8119" transform="matrix(0.866044 0.499967 -0.866044 0.499967 312 221.606)" fill="url(#paint26_linear_193_3750)" fill-opacity="0.4"/>
<rect width="301.37" height="301.37" rx="25.8119" transform="matrix(0.866044 0.499967 -0.866044 0.499967 312 184.179)" fill="url(#paint27_linear_193_3750)" fill-opacity="0.6"/>
<rect width="301.37" height="301.37" rx="25.8119" transform="matrix(0.866044 0.499967 -0.866044 0.499967 312 144.17)" fill="url(#paint28_linear_193_3750)" fill-opacity="0.8"/>
<rect width="301.37" height="301.37" rx="25.8119" transform="matrix(0.866044 0.499967 -0.866044 0.499967 312 99)" fill="url(#paint29_linear_193_3750)"/>
<rect width="99.9607" height="99.9607" rx="8.56147" transform="matrix(0.866044 0.499967 -0.866044 0.499967 137.57 20.9199)" fill="url(#paint30_linear_193_3750)" fill-opacity="0.1"/>
<rect width="99.9607" height="99.9607" rx="8.56147" transform="matrix(0.866044 0.499967 -0.866044 0.499967 137.57 7.64941)" fill="url(#paint31_linear_193_3750)" fill-opacity="0.2"/>
<rect width="99.9607" height="99.9607" rx="8.56147" transform="matrix(0.866044 0.499967 -0.866044 0.499967 137.57 -7.33301)" fill="url(#paint32_linear_193_3750)" fill-opacity="0.4"/>
<rect width="99.9607" height="99.9607" rx="8.56147" transform="matrix(0.866044 0.499967 -0.866044 0.499967 137.57 -19.7471)" fill="url(#paint33_linear_193_3750)" fill-opacity="0.6"/>
<rect width="99.9607" height="99.9607" rx="8.56147" transform="matrix(0.866044 0.499967 -0.866044 0.499967 137.57 -33.0176)" fill="url(#paint34_linear_193_3750)" fill-opacity="0.8"/>
<rect width="99.9607" height="99.9607" rx="8.56147" transform="matrix(0.866044 0.499967 -0.866044 0.499967 137.57 -48)" fill="url(#paint35_linear_193_3750)"/>
<defs>
<linearGradient id="paint0_linear_193_3750" x1="70.143" y1="0" x2="70.143" y2="140.286" gradientUnits="userSpaceOnUse">
<stop stop-color="#3B5BDB"/>
<stop offset="1" stop-color="#91A7FF"/>
</linearGradient>
<linearGradient id="paint1_linear_193_3750" x1="70.143" y1="0" x2="70.143" y2="140.286" gradientUnits="userSpaceOnUse">
<stop stop-color="#3B5BDB"/>
<stop offset="1" stop-color="#91A7FF"/>
</linearGradient>
<linearGradient id="paint2_linear_193_3750" x1="70.143" y1="0" x2="70.143" y2="140.286" gradientUnits="userSpaceOnUse">
<stop stop-color="#3B5BDB"/>
<stop offset="1" stop-color="#91A7FF"/>
</linearGradient>
<linearGradient id="paint3_linear_193_3750" x1="70.143" y1="0" x2="70.143" y2="140.286" gradientUnits="userSpaceOnUse">
<stop stop-color="#3B5BDB"/>
<stop offset="1" stop-color="#91A7FF"/>
</linearGradient>
<linearGradient id="paint4_linear_193_3750" x1="70.143" y1="0" x2="70.143" y2="140.286" gradientUnits="userSpaceOnUse">
<stop stop-color="#3B5BDB"/>
<stop offset="1" stop-color="#91A7FF"/>
</linearGradient>
<linearGradient id="paint5_linear_193_3750" x1="70.143" y1="0" x2="70.143" y2="140.286" gradientUnits="userSpaceOnUse">
<stop stop-color="#3B5BDB"/>
<stop offset="1" stop-color="#91A7FF"/>
</linearGradient>
<linearGradient id="paint6_linear_193_3750" x1="87.178" y1="0" x2="87.178" y2="174.356" gradientUnits="userSpaceOnUse">
<stop stop-color="#3B5BDB"/>
<stop offset="1" stop-color="#91A7FF"/>
</linearGradient>
<linearGradient id="paint7_linear_193_3750" x1="87.178" y1="0" x2="87.178" y2="174.356" gradientUnits="userSpaceOnUse">
<stop stop-color="#3B5BDB"/>
<stop offset="1" stop-color="#91A7FF"/>
</linearGradient>
<linearGradient id="paint8_linear_193_3750" x1="87.178" y1="0" x2="87.178" y2="174.356" gradientUnits="userSpaceOnUse">
<stop stop-color="#3B5BDB"/>
<stop offset="1" stop-color="#91A7FF"/>
</linearGradient>
<linearGradient id="paint9_linear_193_3750" x1="87.178" y1="0" x2="87.178" y2="174.356" gradientUnits="userSpaceOnUse">
<stop stop-color="#3B5BDB"/>
<stop offset="1" stop-color="#91A7FF"/>
</linearGradient>
<linearGradient id="paint10_linear_193_3750" x1="87.178" y1="0" x2="87.178" y2="174.356" gradientUnits="userSpaceOnUse">
<stop stop-color="#3B5BDB"/>
<stop offset="1" stop-color="#91A7FF"/>
</linearGradient>
<linearGradient id="paint11_linear_193_3750" x1="87.178" y1="0" x2="87.178" y2="174.356" gradientUnits="userSpaceOnUse">
<stop stop-color="#3B5BDB"/>
<stop offset="1" stop-color="#91A7FF"/>
</linearGradient>
<linearGradient id="paint12_linear_193_3750" x1="66.4856" y1="0" x2="66.4856" y2="132.971" gradientUnits="userSpaceOnUse">
<stop stop-color="#3B5BDB"/>
<stop offset="1" stop-color="#91A7FF"/>
</linearGradient>
<linearGradient id="paint13_linear_193_3750" x1="66.4856" y1="0" x2="66.4856" y2="132.971" gradientUnits="userSpaceOnUse">
<stop stop-color="#3B5BDB"/>
<stop offset="1" stop-color="#91A7FF"/>
</linearGradient>
<linearGradient id="paint14_linear_193_3750" x1="66.4856" y1="0" x2="66.4856" y2="132.971" gradientUnits="userSpaceOnUse">
<stop stop-color="#3B5BDB"/>
<stop offset="1" stop-color="#91A7FF"/>
</linearGradient>
<linearGradient id="paint15_linear_193_3750" x1="66.4856" y1="0" x2="66.4856" y2="132.971" gradientUnits="userSpaceOnUse">
<stop stop-color="#3B5BDB"/>
<stop offset="1" stop-color="#91A7FF"/>
</linearGradient>
<linearGradient id="paint16_linear_193_3750" x1="66.4856" y1="0" x2="66.4856" y2="132.971" gradientUnits="userSpaceOnUse">
<stop stop-color="#3B5BDB"/>
<stop offset="1" stop-color="#91A7FF"/>
</linearGradient>
<linearGradient id="paint17_linear_193_3750" x1="66.4856" y1="0" x2="66.4856" y2="132.971" gradientUnits="userSpaceOnUse">
<stop stop-color="#3B5BDB"/>
<stop offset="1" stop-color="#91A7FF"/>
</linearGradient>
<linearGradient id="paint18_linear_193_3750" x1="57.8578" y1="0" x2="57.8578" y2="115.716" gradientUnits="userSpaceOnUse">
<stop stop-color="#3B5BDB"/>
<stop offset="1" stop-color="#91A7FF"/>
</linearGradient>
<linearGradient id="paint19_linear_193_3750" x1="57.8578" y1="0" x2="57.8578" y2="115.716" gradientUnits="userSpaceOnUse">
<stop stop-color="#3B5BDB"/>
<stop offset="1" stop-color="#91A7FF"/>
</linearGradient>
<linearGradient id="paint20_linear_193_3750" x1="57.8578" y1="0" x2="57.8578" y2="115.716" gradientUnits="userSpaceOnUse">
<stop stop-color="#3B5BDB"/>
<stop offset="1" stop-color="#91A7FF"/>
</linearGradient>
<linearGradient id="paint21_linear_193_3750" x1="57.8578" y1="0" x2="57.8578" y2="115.716" gradientUnits="userSpaceOnUse">
<stop stop-color="#3B5BDB"/>
<stop offset="1" stop-color="#91A7FF"/>
</linearGradient>
<linearGradient id="paint22_linear_193_3750" x1="57.8578" y1="0" x2="57.8578" y2="115.716" gradientUnits="userSpaceOnUse">
<stop stop-color="#3B5BDB"/>
<stop offset="1" stop-color="#91A7FF"/>
</linearGradient>
<linearGradient id="paint23_linear_193_3750" x1="57.8578" y1="0" x2="57.8578" y2="115.716" gradientUnits="userSpaceOnUse">
<stop stop-color="#3B5BDB"/>
<stop offset="1" stop-color="#91A7FF"/>
</linearGradient>
<linearGradient id="paint24_linear_193_3750" x1="150.685" y1="0" x2="150.685" y2="301.37" gradientUnits="userSpaceOnUse">
<stop stop-color="#3B5BDB"/>
<stop offset="1" stop-color="#91A7FF"/>
</linearGradient>
<linearGradient id="paint25_linear_193_3750" x1="150.685" y1="0" x2="150.685" y2="301.37" gradientUnits="userSpaceOnUse">
<stop stop-color="#3B5BDB"/>
<stop offset="1" stop-color="#91A7FF"/>
</linearGradient>
<linearGradient id="paint26_linear_193_3750" x1="150.685" y1="0" x2="150.685" y2="301.37" gradientUnits="userSpaceOnUse">
<stop stop-color="#3B5BDB"/>
<stop offset="1" stop-color="#91A7FF"/>
</linearGradient>
<linearGradient id="paint27_linear_193_3750" x1="150.685" y1="0" x2="150.685" y2="301.37" gradientUnits="userSpaceOnUse">
<stop stop-color="#3B5BDB"/>
<stop offset="1" stop-color="#91A7FF"/>
</linearGradient>
<linearGradient id="paint28_linear_193_3750" x1="150.685" y1="0" x2="150.685" y2="301.37" gradientUnits="userSpaceOnUse">
<stop stop-color="#3B5BDB"/>
<stop offset="1" stop-color="#91A7FF"/>
</linearGradient>
<linearGradient id="paint29_linear_193_3750" x1="150.685" y1="0" x2="150.685" y2="301.37" gradientUnits="userSpaceOnUse">
<stop stop-color="#3B5BDB"/>
<stop offset="1" stop-color="#91A7FF"/>
</linearGradient>
<linearGradient id="paint30_linear_193_3750" x1="49.9803" y1="0" x2="49.9803" y2="99.9607" gradientUnits="userSpaceOnUse">
<stop stop-color="#3B5BDB"/>
<stop offset="1" stop-color="#91A7FF"/>
</linearGradient>
<linearGradient id="paint31_linear_193_3750" x1="49.9803" y1="0" x2="49.9803" y2="99.9607" gradientUnits="userSpaceOnUse">
<stop stop-color="#3B5BDB"/>
<stop offset="1" stop-color="#91A7FF"/>
</linearGradient>
<linearGradient id="paint32_linear_193_3750" x1="49.9803" y1="0" x2="49.9803" y2="99.9607" gradientUnits="userSpaceOnUse">
<stop stop-color="#3B5BDB"/>
<stop offset="1" stop-color="#91A7FF"/>
</linearGradient>
<linearGradient id="paint33_linear_193_3750" x1="49.9803" y1="0" x2="49.9803" y2="99.9607" gradientUnits="userSpaceOnUse">
<stop stop-color="#3B5BDB"/>
<stop offset="1" stop-color="#91A7FF"/>
</linearGradient>
<linearGradient id="paint34_linear_193_3750" x1="49.9803" y1="0" x2="49.9803" y2="99.9607" gradientUnits="userSpaceOnUse">
<stop stop-color="#3B5BDB"/>
<stop offset="1" stop-color="#91A7FF"/>
</linearGradient>
<linearGradient id="paint35_linear_193_3750" x1="49.9803" y1="0" x2="49.9803" y2="99.9607" gradientUnits="userSpaceOnUse">
<stop stop-color="#3B5BDB"/>
<stop offset="1" stop-color="#91A7FF"/>
</linearGradient>
</defs>
</svg>
