<svg width="157" height="107" viewBox="0 0 157 107" fill="none" xmlns="http://www.w3.org/2000/svg">
<rect width="43.5459" height="43.5459" rx="12.3126" transform="matrix(0.826713 0.562624 -0.826713 0.562624 90 30)" fill="url(#paint0_linear_119_3751)"/>
<path d="M17.0673 65.5949C20.0616 68.6352 23.6777 70.1554 27.9158 70.1554C32.1538 70.1554 35.7469 68.6352 38.6951 65.5949C41.6894 62.5085 43.1865 58.8002 43.1865 54.47C43.1865 50.1399 41.6894 46.4546 38.6951 43.4143C35.7469 40.3279 32.1538 38.7847 27.9158 38.7847C23.6777 38.7847 20.0616 40.3279 17.0673 43.4143C14.1191 46.4546 12.645 50.1399 12.645 54.47C12.645 58.8002 14.1191 62.5085 17.0673 65.5949ZM45.8123 72.4356C40.8833 77.3647 34.9178 79.8292 27.9158 79.8292C20.9138 79.8292 14.9253 77.3647 9.95018 72.4356C5.02115 67.4606 2.55664 61.472 2.55664 54.47C2.55664 47.4681 5.02115 41.5026 9.95018 36.5735C14.9253 31.5985 20.9138 29.1109 27.9158 29.1109C34.9178 29.1109 40.8833 31.5985 45.8123 36.5735C50.7874 41.5026 53.2749 47.4681 53.2749 54.47C53.2749 61.472 50.7874 67.4606 45.8123 72.4356ZM84.1355 79.8292C76.765 79.8292 70.6382 77.3877 65.7553 72.5047C60.8723 67.6218 58.4308 61.6102 58.4308 54.47C58.4308 47.3299 60.8723 41.3183 65.7553 36.4353C70.6382 31.5524 76.765 29.1109 84.1355 29.1109C89.7094 29.1109 94.7075 30.7462 99.1298 34.0169C103.598 37.2415 106.523 41.4565 107.905 46.6619H97.0569C96.0895 44.2665 94.3851 42.3548 91.9436 40.9268C89.5482 39.4987 86.9455 38.7847 84.1355 38.7847C79.5289 38.7847 75.7746 40.2818 72.8724 43.2761C69.9703 46.2704 68.5192 50.0017 68.5192 54.47C68.5192 58.9384 69.9703 62.6697 72.8724 65.664C75.7746 68.6583 79.5289 70.1554 84.1355 70.1554C86.9455 70.1554 89.5482 69.4414 91.9436 68.0133C94.3851 66.5853 96.0895 64.6736 97.0569 62.2782H107.905C106.523 67.4836 103.598 71.7216 99.1298 74.9923C94.7075 78.2169 89.7094 79.8292 84.1355 79.8292ZM115.18 79V29.9401H133.974C138.443 29.9401 142.059 31.3221 144.823 34.086C147.633 36.8499 149.038 40.3049 149.038 44.4508C149.038 50.9 145.675 55.161 138.949 57.234L156.57 79H144.477L127.617 58.3396H125.199V79H115.18ZM125.199 49.7714H132.8C134.734 49.7714 136.255 49.3107 137.36 48.3894C138.512 47.422 139.088 46.1091 139.088 44.4508C139.088 42.7924 138.512 41.5026 137.36 40.5813C136.255 39.6139 134.734 39.1302 132.8 39.1302H125.199V49.7714Z" fill="#2B2E35"/>
<defs>
<linearGradient id="paint0_linear_119_3751" x1="21.773" y1="0" x2="21.773" y2="43.5459" gradientUnits="userSpaceOnUse">
<stop stop-color="#3B5BDB"/>
<stop offset="1" stop-color="#91A7FF"/>
</linearGradient>
</defs>
</svg>
