<svg width="1920" height="493" viewBox="0 0 1920 493" fill="none" xmlns="http://www.w3.org/2000/svg">
<path fill-rule="evenodd" clip-rule="evenodd" d="M0 186.14V154.999C29 140.248 55.5 76.3916 114.5 138.674C172.5 200.956 199.5 272.425 257.5 257.674C315.5 241.284 479 203.674 544 233.674C633 298.674 640 374.626 698 422.157C756 469.688 815 374.626 873 359.875C931 343.485 989 405.767 1047 374.626C1105 343.485 1164 217.281 1222 154.999C1280 91.0777 1298.5 73.5662 1356.5 27.674C1440.5 -38.7908 1533 25.5015 1591 104.174C1649 182.846 1687 312.344 1745 422.157C1804 531.97 1862 500.829 1891 484.439L1920 469.688V658.174H1891C1862 658.174 1804 658.174 1745 658.174C1687 658.174 1629 658.174 1571 658.174C1513 658.174 1455 658.174 1396 658.174C1338 658.174 1280 658.174 1222 658.174C1164 658.174 1105 658.174 1047 658.174C989 658.174 931 658.174 873 658.174C815 658.174 756 658.174 698 658.174C640 658.174 582 658.174 524 658.174C465 658.174 407 658.174 349 658.174C291 658.174 233 658.174 175 658.174C116 658.174 58 658.174 29 658.174H0V186.14Z" fill="url(#paint0_linear_39_3877)"/>
<path fill-rule="evenodd" clip-rule="evenodd" d="M0 584.673L36 536.673C71 488.673 142 392.673 213 316.673C284 239.673 356 181.673 427 152.673C498 124.673 569 124.673 640 172.673C711 220.673 782 316.673 853 383.673C924 450.673 996 488.673 1067 450.673C1138 412.673 1209 296.673 1280 239.673C1351 181.673 1422 181.673 1493 220.673C1564 258.673 1636 335.673 1707 335.673C1778 335.673 1849 258.673 1884 220.673L1920 181.673V642.673H1884C1849 642.673 1778 642.673 1707 642.673C1636 642.673 1564 642.673 1493 642.673C1422 642.673 1351 642.673 1280 642.673C1209 642.673 1138 642.673 1067 642.673C996 642.673 924 642.673 853 642.673C782 642.673 711 642.673 640 642.673C569 642.673 498 642.673 427 642.673C356 642.673 284 642.673 213 642.673C142 642.673 71 642.673 36 642.673H0V584.673Z" fill="url(#paint1_linear_39_3877)"/>
<path fill-rule="evenodd" clip-rule="evenodd" d="M1910 645.965L1910 593.466C1903 440.466 1946.15 545.295 1893.5 477.466C1760 305.466 1556.5 548.466 1353.5 548.466C1250.62 548.466 1113 479.965 995 490.965C870.333 502.587 869 556.465 792.5 562.965C696.679 571.107 630 395.965 539 338.965C447 280.965 339 496.716 247 458.716C156 419.716 81 319.965 36 338.965L-10 357.965V645.965H36C81 645.965 173 645.965 264 645.965C356 645.965 447 645.965 539 645.965C630 645.965 721 645.965 813 645.965C904 645.965 996 645.965 1087 645.965C1179 645.965 1270 645.965 1361 645.965C1453 645.965 1544 645.965 1636 645.965C1727 645.965 1819 645.965 1864 645.965H1910Z" fill="url(#paint2_linear_39_3877)"/>
<defs>
<linearGradient id="paint0_linear_39_3877" x1="960" y1="-64.3262" x2="960" y2="767.674" gradientUnits="userSpaceOnUse">
<stop stop-color="#9C80EE" stop-opacity="0.91"/>
<stop offset="1" stop-color="#8562EB" stop-opacity="0"/>
</linearGradient>
<linearGradient id="paint1_linear_39_3877" x1="960" y1="74.1738" x2="960" y2="642.673" gradientUnits="userSpaceOnUse">
<stop stop-color="#B064FC"/>
<stop offset="1" stop-color="#813DC4" stop-opacity="0"/>
</linearGradient>
<linearGradient id="paint2_linear_39_3877" x1="949.999" y1="664.715" x2="949.999" y2="149.781" gradientUnits="userSpaceOnUse">
<stop stop-color="#E71010" stop-opacity="0.5"/>
<stop offset="1" stop-color="#0099FF" stop-opacity="0"/>
</linearGradient>
</defs>
</svg>
